<svg width="31" height="30" viewBox="0 0 31 30" fill="none" xmlns="http://www.w3.org/2000/svg">
<path d="M11.301 1.01282C11.0853 1.01282 10.8823 1.01282 10.6667 1.01282C5.84602 1.01282 1.68504 2.71818 1 4.97489V10.014C1 11.1039 1.76116 11.8861 2.34471 12.3733C4.12074 13.8863 6.41689 14.5787 8.76378 14.7582C8.76378 14.7582 9.71522 14.7069 10.0324 14.7198C10.451 14.7198 10.8823 14.8095 11.3136 14.8095C14.0792 14.8095 16.8955 14.1684 18.9886 12.3861C19.5722 11.8861 20.3333 11.1039 20.3333 10.0268V4.96206C19.6483 2.70535 15.4873 1 10.6667 1C10.451 1 10.248 1 10.0324 1H11.301V1.01282Z" fill="url(#paint0_linear_34_174)" stroke="#2B2839" stroke-linecap="round" stroke-linejoin="round"/>
<path d="M11.301 6.53754C11.0853 6.53754 10.8823 6.53754 10.6667 6.53754C5.84602 6.53754 1.68504 8.41343 1 10.8958V16.4389C1 17.6377 1.76116 18.4981 2.34471 19.0341C4.12074 20.6984 6.41689 21.46 8.76378 21.6575C8.76378 21.6575 9.71522 21.6011 10.0324 21.6152C10.451 21.6152 10.8823 21.7139 11.3136 21.7139C14.0792 21.7139 16.8955 21.0087 18.9886 19.0482C19.5722 18.4981 20.3333 17.6377 20.3333 16.453V10.8817C19.6483 8.39933 15.4873 6.52344 10.6667 6.52344C10.451 6.52344 10.248 6.52344 10.0324 6.52344H11.301V6.53754Z" fill="url(#paint1_linear_34_174)" stroke="#2B2839" stroke-linecap="round" stroke-linejoin="round"/>
<path d="M11.301 12.0607C11.0853 12.0607 10.8823 12.0607 10.6667 12.0607C5.84602 12.0607 1.68504 13.766 1 16.0227V21.0619C1 22.1518 1.76116 22.9339 2.34471 23.4212C4.12074 24.9342 6.41689 25.6266 8.76378 25.8061C8.76378 25.8061 9.71522 25.7548 10.0324 25.7676C10.451 25.7676 10.8823 25.8574 11.3136 25.8574C14.0792 25.8574 16.8955 25.2163 18.9886 23.434C19.5722 22.9339 20.3333 22.1518 20.3333 21.0747V16.0099C19.6483 13.7532 15.4873 12.0479 10.6667 12.0479C10.451 12.0479 10.248 12.0479 10.0324 12.0479H11.301V12.0607Z" fill="url(#paint2_linear_34_174)" stroke="#2B2839" stroke-linecap="round" stroke-linejoin="round"/>
<path d="M11.301 17.579C11.0853 17.579 10.8823 17.579 10.6667 17.579C5.84602 17.579 1.68504 18.6022 1 19.9562V22.9797C1 23.6336 1.76115 24.1029 2.34471 24.3953C4.12074 25.3031 6.41689 25.7185 8.76378 25.8262C8.76378 25.8262 9.71522 25.7955 10.0324 25.8031C10.451 25.8031 10.8823 25.857 11.3137 25.857C14.0792 25.857 16.8955 25.4723 18.9886 24.403C19.5722 24.1029 20.3333 23.6336 20.3333 22.9874V19.9485C19.6483 18.5945 15.4873 17.5713 10.6667 17.5713C10.451 17.5713 10.248 17.5713 10.0324 17.5713H11.301V17.579Z" fill="url(#paint3_linear_34_174)" stroke="#2B2839" stroke-linecap="round" stroke-linejoin="round"/>
<path d="M20.9689 9.30024C20.7533 9.30024 20.5503 9.30024 20.3346 9.30024C15.514 9.30024 11.353 11.1761 10.668 13.6585V19.2016C10.668 20.4004 11.4291 21.2608 12.0127 21.7968C13.7887 23.4611 16.0849 24.2227 18.4317 24.4202C18.4317 24.4202 19.3832 24.3638 19.7003 24.3779C20.119 24.3779 20.5503 24.4766 20.9816 24.4766C23.7471 24.4766 26.5634 23.7714 28.6566 21.8109C29.2401 21.2608 30.0013 20.4004 30.0013 19.2157V13.6444C29.3163 11.162 25.1553 9.28613 20.3346 9.28613C20.119 9.28613 19.916 9.28613 19.7003 9.28613H20.9689V9.30024Z" fill="url(#paint4_linear_34_174)" stroke="#2B2839" stroke-linecap="round" stroke-linejoin="round"/>
<path d="M20.9689 14.8224C20.7533 14.8224 20.5503 14.8224 20.3346 14.8224C15.514 14.8224 11.353 16.5277 10.668 18.7845V23.8236C10.668 24.9135 11.4291 25.6956 12.0127 26.1829C13.7887 27.6959 16.0849 28.3883 18.4317 28.5678C18.4317 28.5678 19.3832 28.5165 19.7003 28.5293C20.119 28.5293 20.5503 28.6191 20.9816 28.6191C23.7471 28.6191 26.5634 27.978 28.6566 26.1957C29.2401 25.6956 30.0013 24.9135 30.0013 23.8364V18.7716C29.3163 16.5149 25.1553 14.8096 20.3346 14.8096C20.119 14.8096 19.916 14.8096 19.7003 14.8096H20.9689V14.8224Z" fill="url(#paint5_linear_34_174)" stroke="#2B2839" stroke-linecap="round" stroke-linejoin="round"/>
<path d="M20.9689 20.3407C20.7533 20.3407 20.5503 20.3407 20.3346 20.3407C15.514 20.3407 11.353 21.3639 10.668 22.7179V25.7414C10.668 26.3953 11.4291 26.8646 12.0127 27.157C13.7887 28.0648 16.0849 28.4802 18.4317 28.5879C18.4317 28.5879 19.3832 28.5572 19.7003 28.5649C20.119 28.5649 20.5503 28.6187 20.9816 28.6187C23.7471 28.6187 26.5634 28.2341 28.6566 27.1647C29.2401 26.8646 30.0013 26.3954 30.0013 25.7491V22.7102C29.3163 21.3562 25.1553 20.333 20.3346 20.333C20.119 20.333 19.916 20.333 19.7003 20.333H20.9689V20.3407Z" fill="url(#paint6_linear_34_174)" stroke="#2B2839" stroke-linecap="round" stroke-linejoin="round"/>
<defs>
<linearGradient id="paint0_linear_34_174" x1="0.17988" y1="7.90475" x2="20.6297" y2="7.88088" gradientUnits="userSpaceOnUse">
<stop stop-color="#DC4490"/>
<stop offset="0.192708" stop-color="#9161F2"/>
<stop offset="0.635417" stop-color="#72F6C0"/>
</linearGradient>
<linearGradient id="paint1_linear_34_174" x1="0.17988" y1="14.1187" x2="20.6297" y2="14.097" gradientUnits="userSpaceOnUse">
<stop stop-color="#DC4490"/>
<stop offset="0.192708" stop-color="#9161F2"/>
<stop offset="0.635417" stop-color="#72F6C0"/>
</linearGradient>
<linearGradient id="paint2_linear_34_174" x1="0.17988" y1="18.9526" x2="20.6297" y2="18.9287" gradientUnits="userSpaceOnUse">
<stop stop-color="#DC4490"/>
<stop offset="0.192708" stop-color="#9161F2"/>
<stop offset="0.635417" stop-color="#72F6C0"/>
</linearGradient>
<linearGradient id="paint3_linear_34_174" x1="0.17988" y1="21.7141" x2="20.6296" y2="21.6743" gradientUnits="userSpaceOnUse">
<stop stop-color="#DC4490"/>
<stop offset="0.192708" stop-color="#9161F2"/>
<stop offset="0.635417" stop-color="#72F6C0"/>
</linearGradient>
<linearGradient id="paint4_linear_34_174" x1="9.84785" y1="16.8814" x2="30.2976" y2="16.8597" gradientUnits="userSpaceOnUse">
<stop stop-color="#DC4490"/>
<stop offset="0.192708" stop-color="#9161F2"/>
<stop offset="0.635417" stop-color="#72F6C0"/>
</linearGradient>
<linearGradient id="paint5_linear_34_174" x1="9.84785" y1="21.7143" x2="30.2976" y2="21.6904" gradientUnits="userSpaceOnUse">
<stop stop-color="#DC4490"/>
<stop offset="0.192708" stop-color="#9161F2"/>
<stop offset="0.635417" stop-color="#72F6C0"/>
</linearGradient>
<linearGradient id="paint6_linear_34_174" x1="9.84785" y1="24.4759" x2="30.2976" y2="24.4361" gradientUnits="userSpaceOnUse">
<stop stop-color="#DC4490"/>
<stop offset="0.192708" stop-color="#9161F2"/>
<stop offset="0.635417" stop-color="#72F6C0"/>
</linearGradient>
</defs>
</svg>
