<svg width="14" height="14" viewBox="0 0 14 14" fill="none" xmlns="http://www.w3.org/2000/svg">
<path fill-rule="evenodd" clip-rule="evenodd" d="M2.26796 6.20156H3.82476C3.89596 4.96476 4.13116 3.82556 4.49436 2.90716C3.90957 3.2655 3.40829 3.74492 3.02426 4.31317C2.64023 4.88142 2.38235 5.52532 2.26796 6.20156ZM7.00156 0.601562C5.30418 0.601563 3.67631 1.27585 2.47608 2.47608C1.27585 3.67631 0.601563 5.30418 0.601562 7.00156C0.601563 8.69895 1.27585 10.3268 2.47608 11.527C3.67631 12.7273 5.30418 13.4016 7.00156 13.4016C8.69895 13.4016 10.3268 12.7273 11.527 11.527C12.7273 10.3268 13.4016 8.69895 13.4016 7.00156C13.4016 5.30418 12.7273 3.67631 11.527 2.47608C10.3268 1.27585 8.69895 0.601563 7.00156 0.601562ZM7.00156 2.20156C6.94076 2.20156 6.81596 2.22716 6.62956 2.41116C6.43916 2.59836 6.23196 2.90956 6.03996 3.35676C5.72876 4.08236 5.50156 5.07036 5.42716 6.20156H8.57596C8.50156 5.07036 8.27436 4.08236 7.96316 3.35676C7.77116 2.90876 7.56316 2.59836 7.37356 2.41116C7.18716 2.22716 7.06236 2.20156 7.00156 2.20156ZM10.1784 6.20156C10.1072 4.96476 9.87196 3.82556 9.50876 2.90716C10.0936 3.2655 10.5948 3.74492 10.9789 4.31317C11.3629 4.88142 11.6208 5.52532 11.7352 6.20156H10.1784ZM8.57596 7.80156H5.42716C5.50156 8.93276 5.72876 9.92076 6.03996 10.6464C6.23196 11.0944 6.43996 11.4048 6.62956 11.592C6.81596 11.776 6.94076 11.8016 7.00156 11.8016C7.06236 11.8016 7.18716 11.776 7.37356 11.592C7.56396 11.4048 7.77196 11.0936 7.96316 10.6464C8.27436 9.92076 8.50156 8.93276 8.57596 7.80156ZM9.50876 11.096C9.87196 10.1784 10.1072 9.03836 10.1784 7.80156H11.7352C11.6208 8.47781 11.3629 9.12171 10.9789 9.68996C10.5948 10.2582 10.0936 10.7376 9.50876 11.096ZM4.49436 11.096C4.13116 10.1776 3.89596 9.03836 3.82556 7.80156H2.26796C2.38235 8.47781 2.64023 9.12171 3.02426 9.68996C3.40829 10.2582 3.90957 10.7376 4.49436 11.096Z" fill="white"/>
</svg>
