<svg width="14" height="12" viewBox="0 0 14 12" fill="none" xmlns="http://www.w3.org/2000/svg">
<path fill-rule="evenodd" clip-rule="evenodd" d="M6.23 1.333C6.757 0.905 6.68 0 6 0C5.21207 -1.17411e-08 4.43185 0.155195 3.7039 0.456723C2.97595 0.758251 2.31451 1.20021 1.75736 1.75736C1.20021 2.31451 0.758251 2.97595 0.456723 3.7039C0.155195 4.43185 0 5.21207 0 6C0 6.78793 0.155195 7.56815 0.456723 8.2961C0.758251 9.02405 1.20021 9.68549 1.75736 10.2426C2.31451 10.7998 2.97595 11.2417 3.7039 11.5433C4.43185 11.8448 5.21207 12 6 12C6.68 12 6.758 11.095 6.23 10.668C5.53303 10.1061 4.9709 9.39504 4.58498 8.5872C4.19906 7.77937 3.99916 6.89528 4 6C4 4.115 4.87 2.433 6.23 1.333ZM11 3C11.2652 3 11.5196 3.10536 11.7071 3.29289C11.8946 3.48043 12 3.73478 12 4C12 4.26522 12.1054 4.51957 12.2929 4.70711C12.4804 4.89464 12.7348 5 13 5C13.2652 5 13.5196 5.10536 13.7071 5.29289C13.8946 5.48043 14 5.73478 14 6C14 6.26522 13.8946 6.51957 13.7071 6.70711C13.5196 6.89464 13.2652 7 13 7C12.7348 7 12.4804 7.10536 12.2929 7.29289C12.1054 7.48043 12 7.73478 12 8C12 8.26522 11.8946 8.51957 11.7071 8.70711C11.5196 8.89464 11.2652 9 11 9C10.7348 9 10.4804 8.89464 10.2929 8.70711C10.1054 8.51957 10 8.26522 10 8C10 7.73478 9.89464 7.48043 9.70711 7.29289C9.51957 7.10536 9.26522 7 9 7C8.73478 7 8.48043 6.89464 8.29289 6.70711C8.10536 6.51957 8 6.26522 8 6C8 5.73478 8.10536 5.48043 8.29289 5.29289C8.48043 5.10536 8.73478 5 9 5C9.26522 5 9.51957 4.89464 9.70711 4.70711C9.89464 4.51957 10 4.26522 10 4C10 3.73478 10.1054 3.48043 10.2929 3.29289C10.4804 3.10536 10.7348 3 11 3Z" fill="white"/>
</svg>
